<svg width="25" height="27" viewBox="0 0 30 30" fill="none" xmlns="http://www.w3.org/2000/svg">
<path d="M22.7812 0.09375H6.28125C5.73424 0.09375 5.20964 0.311048 4.82284 0.697842C4.43605 1.08464 4.21875 1.60924 4.21875 2.15625V5.25H2.15625C1.60924 5.25 1.08464 5.4673 0.697842 5.85409C0.311048 6.24089 0.09375 6.76549 0.09375 7.3125V19.6875C0.09375 20.2345 0.311048 20.7591 0.697842 21.1459C1.08464 21.5327 1.60924 21.75 2.15625 21.75H4.21875V24.8438C4.21875 25.3908 4.43605 25.9154 4.82284 26.3022C5.20964 26.689 5.73424 26.9062 6.28125 26.9062H22.7812C23.3283 26.9062 23.8529 26.689 24.2397 26.3022C24.6265 25.9154 24.8438 25.3908 24.8438 24.8438V2.15625C24.8438 1.60924 24.6265 1.08464 24.2397 0.697842C23.8529 0.311048 23.3283 0.09375 22.7812 0.09375ZM17.625 10.4062H22.7812V16.5938H17.625V10.4062ZM22.7812 8.34375H17.625V7.3125C17.625 6.76549 17.4077 6.24089 17.0209 5.85409C16.6341 5.4673 16.1095 5.25 15.5625 5.25V2.15625H22.7812V8.34375ZM6.28125 2.15625H13.5V5.25H6.28125V2.15625ZM2.15625 7.3125H15.5625V19.6875H2.15625V7.3125ZM6.28125 21.75H13.5V24.8438H6.28125V21.75ZM15.5625 24.8438V21.75C16.1095 21.75 16.6341 21.5327 17.0209 21.1459C17.4077 20.7591 17.625 20.2345 17.625 19.6875V18.6562H22.7812V24.8438H15.5625ZM5.71406 15.975L7.57031 13.5L5.71406 11.025C5.63281 10.9167 5.57369 10.7934 5.54008 10.6622C5.50647 10.531 5.49903 10.3945 5.51818 10.2604C5.53733 10.1263 5.5827 9.99736 5.6517 9.88083C5.7207 9.7643 5.81197 9.66251 5.92031 9.58125C6.02865 9.49999 6.15194 9.44087 6.28313 9.40726C6.41431 9.37365 6.55084 9.36621 6.6849 9.38536C6.81897 9.40452 6.94795 9.44989 7.06448 9.51889C7.18101 9.58788 7.28281 9.67916 7.36406 9.7875L8.85938 11.7855L10.3547 9.7875C10.5188 9.5687 10.7631 9.42404 11.0338 9.38536C11.3046 9.34669 11.5796 9.41715 11.7984 9.58125C12.0172 9.74535 12.1619 9.98965 12.2006 10.2604C12.2393 10.5312 12.1688 10.8062 12.0047 11.025L10.1484 13.5L12.0047 15.975C12.1688 16.1938 12.2393 16.4688 12.2006 16.7396C12.1619 17.0103 12.0172 17.2546 11.7984 17.4187C11.6213 17.5552 11.4033 17.6279 11.1797 17.625C11.0196 17.625 10.8617 17.5877 10.7185 17.5161C10.5753 17.4445 10.4507 17.3406 10.3547 17.2125L8.85938 15.2145L7.36406 17.2125C7.268 17.3406 7.14345 17.4445 7.00025 17.5161C6.85706 17.5877 6.69916 17.625 6.53906 17.625C6.31547 17.6279 6.09744 17.5552 5.92031 17.4187C5.70151 17.2546 5.55686 17.0103 5.51818 16.7396C5.4795 16.4688 5.54996 16.1938 5.71406 15.975Z" fill="#2991F7"/>
</svg>
