<svg width="56" height="21" viewBox="0 0 56 21" fill="none" xmlns="http://www.w3.org/2000/svg">
<path d="M19.977 10.5C19.977 15.1944 15.9527 19 10.9885 19C6.02429 19 2 15.1944 2 10.5C2 5.80558 6.02429 2 10.9885 2M19.977 10.5C20.833 9.96032 21.6891 8.88095 24.2572 8.88095C27.2534 8.88095 27.6814 9.96032 28.5375 10.5M19.977 10.5C19.977 9.11104 19.6247 7.79989 19 6.6421M46.5145 10.5C46.5145 15.1944 42.4902 19 37.526 19C32.5617 19 28.5375 15.1944 28.5375 10.5M46.5145 10.5C47.7985 9.42063 50.6235 7.01905 51.6507 6.04762C52.9348 4.83333 55.0749 7.2619 53.3628 8.47619M46.5145 10.5C46.5145 9.11104 46.1622 7.79989 45.5375 6.6421M37.526 2C32.5617 2 28.5375 5.80558 28.5375 10.5" stroke="#5C0605" stroke-width="3" stroke-linecap="round"/>
</svg>
