<svg width="19" height="19" viewBox="0 0 19 19" fill="none" xmlns="http://www.w3.org/2000/svg">
<g clip-path="url(#clip0_714_1075)">
<path d="M17.2085 9.50061C17.2085 7.11107 15.2694 5.17202 12.8799 5.17202C11.3619 5.17202 9.98109 5.96527 9.19764 7.24818L3.18462 7.24818C1.94089 7.24818 0.932188 8.25688 0.932188 9.50061C0.932188 10.1176 1.18681 10.6856 1.59323 11.092C1.99965 11.4984 2.56275 11.7481 3.18462 11.753L3.52738 11.753C3.81138 11.753 4.08559 11.6453 4.29125 11.4397L5.02574 10.7737C5.17753 11.0822 5.47623 11.3026 5.81409 11.3564C6.15195 11.4103 6.50451 11.3026 6.74934 11.0577L7.097 10.7786L7.29286 11.1606C7.47404 11.5278 7.84618 11.753 8.25749 11.753L9.19764 11.753C9.37881 12.0517 9.57957 12.3308 9.8195 12.5708C10.6176 13.3689 11.7096 13.8341 12.875 13.8341C14.0306 13.8341 15.1176 13.3836 15.9353 12.5659C16.7531 11.7481 17.2036 10.6611 17.2036 9.50551L17.2085 9.50061ZM12.8799 12.7911C11.6361 12.7911 10.5148 12.1007 9.95171 10.999C9.94192 10.9794 9.91743 10.9647 9.90764 10.9451C9.87826 10.9157 9.86357 10.8815 9.83909 10.857C9.81461 10.8325 9.78523 10.8227 9.76074 10.808C9.73136 10.7884 9.70198 10.7688 9.67261 10.759C9.63833 10.7443 9.60405 10.7394 9.56488 10.7394C9.5404 10.7346 9.52081 10.7248 9.49143 10.7248L8.23301 10.7003L8.03714 10.3183C7.88535 10.0099 7.58666 9.78951 7.24879 9.73565C6.91093 9.68179 6.55837 9.78951 6.31354 10.0343L5.96099 10.3183C5.80919 10.0099 5.5105 9.78951 5.17264 9.73565C4.83477 9.68179 4.48222 9.78951 4.23739 10.0343L3.53228 10.7199L3.18952 10.7199C2.52358 10.7199 1.98006 10.1763 1.98006 9.51041C1.98006 8.84447 2.52358 8.30095 3.19441 8.29605H9.49143C9.49143 8.29605 9.55019 8.28626 9.57957 8.27646C9.61385 8.27157 9.63833 8.26667 9.66771 8.25688C9.70198 8.24219 9.73136 8.2226 9.77054 8.20301C9.79012 8.18343 9.8195 8.17364 9.83909 8.15405C9.86847 8.12467 9.89295 8.10019 9.91254 8.06101C9.92723 8.04632 9.94681 8.02674 9.95661 8.00715C10.5246 6.90052 11.6459 6.2101 12.8848 6.215C14.6965 6.215 16.1753 7.69377 16.1753 9.50551C16.1753 10.3869 15.8325 11.2095 15.2106 11.8314C14.5888 12.4533 13.7662 12.796 12.8848 12.796L12.8799 12.7911Z" fill="#A88D8D"/>
<path d="M14.437 9.15855C14.437 8.87455 14.202 8.63952 13.918 8.63952C13.634 8.63952 13.3989 8.87455 13.3989 9.15855L13.3989 9.85387C13.3989 10.0008 13.4577 10.1281 13.5507 10.2211C13.6438 10.3142 13.7711 10.3729 13.918 10.3729C14.202 10.3729 14.437 10.1379 14.437 9.85387L14.437 9.15855Z" fill="#A88D8D"/>
</g>
<defs>
<clipPath id="clip0_714_1075">
<rect width="19" height="19" fill="white"/>
</clipPath>
</defs>
</svg>
