<svg width="22" height="18" viewBox="0 0 22 18" fill="none" xmlns="http://www.w3.org/2000/svg">
<path d="M22 4.7856V14.85C22 16.59 20.6395 18 18.9605 18H3.03947C2.23336 18 1.46025 17.6681 0.890241 17.0774C0.320229 16.4866 0 15.6854 0 14.85V4.7856L10.6515 10.8576C10.8686 10.9812 11.132 10.9812 11.3485 10.8576L22 4.785V4.7856ZM18.9605 1.3547e-08C19.754 7.64133e-05 20.5159 0.321692 21.0836 0.896146C21.6513 1.4706 21.9798 2.25235 21.9988 3.0744L11 9.3444L0.00115781 3.0738L0.0023159 3.0198C0.0347384 2.20755 0.368909 1.43975 0.934947 0.876946C1.50099 0.314143 2.25506 -7.53318e-05 3.03947 1.3547e-08H18.9605Z" fill="#5C0605"/>
</svg>
