<svg width="27" height="31" viewBox="0 0 27 31" fill="none" xmlns="http://www.w3.org/2000/svg">
<path d="M6.90173 17.3562C6.65163 17.3562 6.41177 17.4539 6.23493 17.628C6.05808 17.8021 5.95873 18.0381 5.95873 18.2843V21.9968C5.95873 22.2429 6.05808 22.479 6.23493 22.6531C6.41177 22.8271 6.65163 22.9249 6.90173 22.9249C7.15182 22.9249 7.39168 22.8271 7.56852 22.6531C7.74537 22.479 7.84472 22.2429 7.84472 21.9968V21.6886H8.47275C9.05648 21.6886 9.61629 21.4604 10.0291 21.0542C10.4418 20.6479 10.6737 20.0969 10.6737 19.5224C10.6737 18.9479 10.4418 18.3969 10.0291 17.9906C9.61629 17.5844 9.05648 17.3562 8.47275 17.3562H6.90173ZM8.47275 19.8324H7.84472V19.2124H8.47275C8.55628 19.2124 8.63639 19.2451 8.69546 19.3032C8.75453 19.3613 8.78771 19.4402 8.78771 19.5224C8.78771 19.6046 8.75453 19.6835 8.69546 19.7416C8.63639 19.7997 8.55628 19.8324 8.47275 19.8324ZM17.2746 18.2824C17.2751 18.0366 17.3747 17.801 17.5515 17.6273C17.7283 17.4537 17.9679 17.3562 18.2176 17.3562H20.1017C20.3518 17.3562 20.5917 17.4539 20.7685 17.628C20.9454 17.8021 21.0447 18.0381 21.0447 18.2843C21.0447 18.5304 20.9454 18.7665 20.7685 18.9406C20.5917 19.1146 20.3518 19.2124 20.1017 19.2124H19.1587V19.8342H20.1017C20.3518 19.8342 20.5917 19.932 20.7685 20.1061C20.9454 20.2801 21.0447 20.5162 21.0447 20.7624C21.0447 21.0085 20.9454 21.2446 20.7685 21.4187C20.5917 21.5927 20.3518 21.6905 20.1017 21.6905H19.1587L19.1606 21.9949C19.1609 22.1168 19.1367 22.2375 19.0896 22.3502C19.0424 22.4629 18.9731 22.5654 18.8858 22.6517C18.7093 22.8262 18.4696 22.9244 18.2195 22.9249C17.9694 22.9254 17.7294 22.8281 17.5522 22.6544C17.375 22.4807 17.2751 22.2448 17.2746 21.9986V18.2824ZM12.5559 17.3562C12.3058 17.3562 12.066 17.4539 11.8891 17.628C11.7123 17.8021 11.6129 18.0381 11.6129 18.2843V21.9968C11.6129 22.2429 11.7123 22.479 11.8891 22.6531C12.066 22.8271 12.3058 22.9249 12.5559 22.9249H13.5027C14.253 22.9249 14.9725 22.6316 15.5031 22.1094C16.0336 21.5872 16.3316 20.879 16.3316 20.1405C16.3316 19.4021 16.0336 18.6938 15.5031 18.1717C14.9725 17.6495 14.253 17.3562 13.5027 17.3562H12.5559ZM13.4989 21.0687V19.2124H13.5027C13.7528 19.2124 13.9926 19.3102 14.1695 19.4842C14.3463 19.6583 14.4457 19.8944 14.4457 20.1405C14.4457 20.3867 14.3463 20.6228 14.1695 20.7968C13.9926 20.9709 13.7528 21.0687 13.5027 21.0687H13.4989ZM2.18677 4.3624C2.18677 3.37779 2.58417 2.4335 3.29155 1.73727C3.99893 1.04104 4.95835 0.649902 5.95873 0.649902H14.606C14.9777 0.64998 15.3457 0.722153 15.6891 0.862296C16.0324 1.00244 16.3443 1.2078 16.607 1.46665L23.9887 8.73202C24.5194 9.25369 24.8179 9.96143 24.8186 10.6996V13.7959C25.3694 13.9884 25.846 14.3441 26.1831 14.8141C26.5201 15.2841 26.701 15.8453 26.7008 16.4206V23.8512C26.701 24.4264 26.5201 24.9877 26.1831 25.4577C25.846 25.9277 25.3694 26.2834 24.8186 26.4759V26.6374C24.8186 27.622 24.4212 28.5663 23.7138 29.2625C23.0064 29.9588 22.047 30.3499 21.0466 30.3499H5.95873C4.95835 30.3499 3.99893 29.9588 3.29155 29.2625C2.58417 28.5663 2.18677 27.622 2.18677 26.6374V26.4759C1.63557 26.2841 1.1583 25.9289 0.820569 25.4593C0.482841 24.9896 0.301255 24.4284 0.300782 23.853V16.4225C0.300475 15.8464 0.4817 15.2845 0.81948 14.814C1.15726 14.3436 1.63497 13.9879 2.18677 13.7959V4.3624ZM22.9326 11.7874H16.3316C15.5814 11.7874 14.8618 11.494 14.3313 10.9719C13.8007 10.4497 13.5027 9.74149 13.5027 9.00303V2.50615H5.95873C5.45854 2.50615 4.97883 2.70172 4.62514 3.04984C4.27145 3.39795 4.07275 3.87009 4.07275 4.3624V13.6362H22.9326V11.7874ZM4.07275 26.6355C4.0725 26.8795 4.1211 27.121 4.21577 27.3465C4.31044 27.5719 4.44932 27.7767 4.62447 27.9493C4.79963 28.1219 5.00762 28.2588 5.23656 28.3522C5.4655 28.4456 5.7109 28.4937 5.95873 28.4937H21.0466C21.2944 28.4937 21.5398 28.4456 21.7688 28.3522C21.9977 28.2588 22.2057 28.1219 22.3809 27.9493C22.556 27.7767 22.6949 27.5719 22.7896 27.3465C22.8842 27.121 22.9328 26.8795 22.9326 26.6355H4.07275ZM15.3887 2.8904V9.00303C15.3887 9.24918 15.488 9.48525 15.6648 9.65931C15.8417 9.83337 16.0815 9.93115 16.3316 9.93115H22.5422L15.3887 2.8904ZM3.12976 15.4925C2.87966 15.4925 2.63981 15.5903 2.46296 15.7643C2.28612 15.9384 2.18677 16.1744 2.18677 16.4206V23.8512C2.18677 24.0973 2.28612 24.3334 2.46296 24.5075C2.63981 24.6815 2.87966 24.7793 3.12976 24.7793H23.8699C24.12 24.7793 24.3599 24.6815 24.5367 24.5075C24.7136 24.3334 24.8129 24.0973 24.8129 23.8512V16.4206C24.8129 16.1744 24.7136 15.9384 24.5367 15.7643C24.3599 15.5903 24.12 15.4925 23.8699 15.4925H3.13164H3.12976Z" fill="#5C0605"/>
</svg>
