<svg width="24" height="24" viewBox="0 0 24 24" fill="none" xmlns="http://www.w3.org/2000/svg">
<circle cx="12" cy="12" r="11" stroke="#5C0605" stroke-width="2"/>
<path d="M10.2924 7.05301L9.22644 5.8003C8.85592 5.36487 8.19641 5.32816 7.77986 5.71979L5.99883 7.39426C5.39687 7.96021 5.20126 8.84174 5.53274 9.59856C7.41482 13.8956 9.26899 16.2436 12.7308 19.0929C13.3987 19.6427 14.3494 19.6738 15.0675 19.1916L17.0697 17.847C17.5655 17.514 17.6608 16.8236 17.2738 16.3688L16.3173 15.2447C15.9468 14.8093 15.2873 14.7726 14.8708 15.1642L14.4441 15.5653C14.1045 15.8847 13.5869 15.9281 13.2063 15.6589C10.9961 14.0954 9.91134 12.8372 8.84748 10.647C8.66101 10.2631 8.75415 9.80379 9.06507 9.51147L10.2158 8.42963C10.6041 8.06451 10.6378 7.45897 10.2924 7.05301Z" fill="#5C0605"/>
</svg>
