<svg width="160" height="160" viewBox="0 0 160 160" fill="none" xmlns="http://www.w3.org/2000/svg">
<path d="M160 0H0V160H160V0Z" fill="white"/>
<path d="M15.6 10H10V15.6H15.6V10Z" fill="#5C0605"/>
<path d="M21.2 10H15.6V15.6H21.2V10Z" fill="#5C0605"/>
<path d="M26.8 10H21.2V15.6H26.8V10Z" fill="#5C0605"/>
<path d="M32.4 10H26.8V15.6H32.4V10Z" fill="#5C0605"/>
<path d="M38 10H32.4V15.6H38V10Z" fill="#5C0605"/>
<path d="M43.6 10H38V15.6H43.6V10Z" fill="#5C0605"/>
<path d="M49.2 10H43.6V15.6H49.2V10Z" fill="#5C0605"/>
<path d="M60.4 10H54.8V15.6H60.4V10Z" fill="#5C0605"/>
<path d="M71.6 10H66V15.6H71.6V10Z" fill="#5C0605"/>
<path d="M77.2 10H71.6V15.6H77.2V10Z" fill="#5C0605"/>
<path d="M82.8 10H77.2V15.6H82.8V10Z" fill="#5C0605"/>
<path d="M88.4 10H82.8V15.6H88.4V10Z" fill="#5C0605"/>
<path d="M94 10H88.4V15.6H94V10Z" fill="#5C0605"/>
<path d="M99.6 10H94V15.6H99.6V10Z" fill="#5C0605"/>
<path d="M105.2 10H99.6V15.6H105.2V10Z" fill="#5C0605"/>
<path d="M116.4 10H110.8V15.6H116.4V10Z" fill="#5C0605"/>
<path d="M122 10H116.4V15.6H122V10Z" fill="#5C0605"/>
<path d="M127.6 10H122V15.6H127.6V10Z" fill="#5C0605"/>
<path d="M133.2 10H127.6V15.6H133.2V10Z" fill="#5C0605"/>
<path d="M138.8 10H133.2V15.6H138.8V10Z" fill="#5C0605"/>
<path d="M144.4 10H138.8V15.6H144.4V10Z" fill="#5C0605"/>
<path d="M150 10H144.4V15.6H150V10Z" fill="#5C0605"/>
<path d="M15.6 15.6H10V21.2H15.6V15.6Z" fill="#5C0605"/>
<path d="M49.2 15.6H43.6V21.2H49.2V15.6Z" fill="#5C0605"/>
<path d="M82.8 15.6H77.2V21.2H82.8V15.6Z" fill="#5C0605"/>
<path d="M94 15.6H88.4V21.2H94V15.6Z" fill="#5C0605"/>
<path d="M116.4 15.6H110.8V21.2H116.4V15.6Z" fill="#5C0605"/>
<path d="M150 15.6H144.4V21.2H150V15.6Z" fill="#5C0605"/>
<path d="M15.6 21.2H10V26.8H15.6V21.2Z" fill="#5C0605"/>
<path d="M26.8 21.2H21.2V26.8H26.8V21.2Z" fill="#5C0605"/>
<path d="M32.4 21.2H26.8V26.8H32.4V21.2Z" fill="#5C0605"/>
<path d="M38 21.2H32.4V26.8H38V21.2Z" fill="#5C0605"/>
<path d="M49.2 21.2H43.6V26.8H49.2V21.2Z" fill="#5C0605"/>
<path d="M71.6 21.2H66V26.8H71.6V21.2Z" fill="#5C0605"/>
<path d="M77.2 21.2H71.6V26.8H77.2V21.2Z" fill="#5C0605"/>
<path d="M82.8 21.2H77.2V26.8H82.8V21.2Z" fill="#5C0605"/>
<path d="M105.2 21.2H99.6V26.8H105.2V21.2Z" fill="#5C0605"/>
<path d="M116.4 21.2H110.8V26.8H116.4V21.2Z" fill="#5C0605"/>
<path d="M127.6 21.2H122V26.8H127.6V21.2Z" fill="#5C0605"/>
<path d="M133.2 21.2H127.6V26.8H133.2V21.2Z" fill="#5C0605"/>
<path d="M138.8 21.2H133.2V26.8H138.8V21.2Z" fill="#5C0605"/>
<path d="M150 21.2H144.4V26.8H150V21.2Z" fill="#5C0605"/>
<path d="M15.6 26.8H10V32.4H15.6V26.8Z" fill="#5C0605"/>
<path d="M26.8 26.8H21.2V32.4H26.8V26.8Z" fill="#5C0605"/>
<path d="M32.4 26.8H26.8V32.4H32.4V26.8Z" fill="#5C0605"/>
<path d="M38 26.8H32.4V32.4H38V26.8Z" fill="#5C0605"/>
<path d="M49.2 26.8H43.6V32.4H49.2V26.8Z" fill="#5C0605"/>
<path d="M60.4 26.8H54.8V32.4H60.4V26.8Z" fill="#5C0605"/>
<path d="M66 26.8H60.4V32.4H66V26.8Z" fill="#5C0605"/>
<path d="M82.8 26.8H77.2V32.4H82.8V26.8Z" fill="#5C0605"/>
<path d="M88.4 26.8H82.8V32.4H88.4V26.8Z" fill="#5C0605"/>
<path d="M99.6 26.8H94V32.4H99.6V26.8Z" fill="#5C0605"/>
<path d="M105.2 26.8H99.6V32.4H105.2V26.8Z" fill="#5C0605"/>
<path d="M116.4 26.8H110.8V32.4H116.4V26.8Z" fill="#5C0605"/>
<path d="M127.6 26.8H122V32.4H127.6V26.8Z" fill="#5C0605"/>
<path d="M133.2 26.8H127.6V32.4H133.2V26.8Z" fill="#5C0605"/>
<path d="M138.8 26.8H133.2V32.4H138.8V26.8Z" fill="#5C0605"/>
<path d="M150 26.8H144.4V32.4H150V26.8Z" fill="#5C0605"/>
<path d="M15.6 32.4H10V38H15.6V32.4Z" fill="#5C0605"/>
<path d="M26.8 32.4H21.2V38H26.8V32.4Z" fill="#5C0605"/>
<path d="M32.4 32.4H26.8V38H32.4V32.4Z" fill="#5C0605"/>
<path d="M38 32.4H32.4V38H38V32.4Z" fill="#5C0605"/>
<path d="M49.2 32.4H43.6V38H49.2V32.4Z" fill="#5C0605"/>
<path d="M60.4 32.4H54.8V38H60.4V32.4Z" fill="#5C0605"/>
<path d="M66 32.4H60.4V38H66V32.4Z" fill="#5C0605"/>
<path d="M77.2 32.4H71.6V38H77.2V32.4Z" fill="#5C0605"/>
<path d="M88.4 32.4H82.8V38H88.4V32.4Z" fill="#5C0605"/>
<path d="M94 32.4H88.4V38H94L94 32.4Z" fill="#5C0605"/>
<path d="M105.2 32.4H99.6V38H105.2V32.4Z" fill="#5C0605"/>
<path d="M116.4 32.4H110.8V38H116.4V32.4Z" fill="#5C0605"/>
<path d="M127.6 32.4H122V38H127.6V32.4Z" fill="#5C0605"/>
<path d="M133.2 32.4H127.6V38H133.2V32.4Z" fill="#5C0605"/>
<path d="M138.8 32.4H133.2V38H138.8V32.4Z" fill="#5C0605"/>
<path d="M150 32.4H144.4V38H150V32.4Z" fill="#5C0605"/>
<path d="M15.6 38H10V43.6H15.6V38Z" fill="#5C0605"/>
<path d="M49.2 38H43.6V43.6H49.2V38Z" fill="#5C0605"/>
<path d="M60.4 38H54.8V43.6H60.4V38Z" fill="#5C0605"/>
<path d="M66 38H60.4V43.6H66V38Z" fill="#5C0605"/>
<path d="M71.6 38H66V43.6H71.6V38Z" fill="#5C0605"/>
<path d="M77.2 38H71.6V43.6H77.2V38Z" fill="#5C0605"/>
<path d="M82.8 38H77.2V43.6H82.8V38Z" fill="#5C0605"/>
<path d="M88.4 38H82.8V43.6H88.4V38Z" fill="#5C0605"/>
<path d="M105.2 38H99.6V43.6H105.2V38Z" fill="#5C0605"/>
<path d="M116.4 38H110.8V43.6H116.4V38Z" fill="#5C0605"/>
<path d="M150 38H144.4V43.6H150V38Z" fill="#5C0605"/>
<path d="M15.6 43.6H10V49.2H15.6V43.6Z" fill="#5C0605"/>
<path d="M21.2 43.6H15.6V49.2H21.2V43.6Z" fill="#5C0605"/>
<path d="M26.8 43.6H21.2V49.2H26.8V43.6Z" fill="#5C0605"/>
<path d="M32.4 43.6H26.8V49.2H32.4V43.6Z" fill="#5C0605"/>
<path d="M38 43.6H32.4V49.2H38V43.6Z" fill="#5C0605"/>
<path d="M43.6 43.6H38V49.2H43.6V43.6Z" fill="#5C0605"/>
<path d="M49.2 43.6H43.6V49.2H49.2V43.6Z" fill="#5C0605"/>
<path d="M60.4 43.6H54.8V49.2H60.4V43.6Z" fill="#5C0605"/>
<path d="M71.6 43.6H66V49.2H71.6V43.6Z" fill="#5C0605"/>
<path d="M82.8 43.6H77.2V49.2H82.8V43.6Z" fill="#5C0605"/>
<path d="M94 43.6H88.4V49.2H94V43.6Z" fill="#5C0605"/>
<path d="M105.2 43.6H99.6V49.2H105.2V43.6Z" fill="#5C0605"/>
<path d="M116.4 43.6H110.8V49.2H116.4V43.6Z" fill="#5C0605"/>
<path d="M122 43.6H116.4V49.2H122V43.6Z" fill="#5C0605"/>
<path d="M127.6 43.6H122V49.2H127.6V43.6Z" fill="#5C0605"/>
<path d="M133.2 43.6H127.6V49.2H133.2V43.6Z" fill="#5C0605"/>
<path d="M138.8 43.6H133.2V49.2H138.8V43.6Z" fill="#5C0605"/>
<path d="M144.4 43.6H138.8V49.2H144.4V43.6Z" fill="#5C0605"/>
<path d="M150 43.6H144.4V49.2H150V43.6Z" fill="#5C0605"/>
<path d="M60.4 49.2H54.8V54.8H60.4V49.2Z" fill="#5C0605"/>
<path d="M66 49.2H60.4V54.8H66V49.2Z" fill="#5C0605"/>
<path d="M71.6 49.2H66V54.8H71.6V49.2Z" fill="#5C0605"/>
<path d="M77.2 49.2H71.6V54.8H77.2V49.2Z" fill="#5C0605"/>
<path d="M94 49.2H88.4V54.8H94V49.2Z" fill="#5C0605"/>
<path d="M99.6 49.2H94V54.8H99.6V49.2Z" fill="#5C0605"/>
<path d="M15.6 54.8H10V60.4H15.6V54.8Z" fill="#5C0605"/>
<path d="M21.2 54.8H15.6V60.4H21.2V54.8Z" fill="#5C0605"/>
<path d="M26.8 54.8H21.2V60.4H26.8V54.8Z" fill="#5C0605"/>
<path d="M38 54.8H32.4V60.4H38V54.8Z" fill="#5C0605"/>
<path d="M49.2 54.8H43.6V60.4H49.2V54.8Z" fill="#5C0605"/>
<path d="M60.4 54.8H54.8V60.4H60.4V54.8Z" fill="#5C0605"/>
<path d="M71.6 54.8H66V60.4H71.6V54.8Z" fill="#5C0605"/>
<path d="M82.8 54.8H77.2V60.4H82.8V54.8Z" fill="#5C0605"/>
<path d="M88.4 54.8H82.8V60.4H88.4V54.8Z" fill="#5C0605"/>
<path d="M94 54.8H88.4V60.4H94V54.8Z" fill="#5C0605"/>
<path d="M105.2 54.8H99.6V60.4H105.2V54.8Z" fill="#5C0605"/>
<path d="M110.8 54.8H105.2V60.4H110.8V54.8Z" fill="#5C0605"/>
<path d="M116.4 54.8H110.8V60.4H116.4V54.8Z" fill="#5C0605"/>
<path d="M122 54.8H116.4V60.4H122V54.8Z" fill="#5C0605"/>
<path d="M127.6 54.8H122V60.4H127.6V54.8Z" fill="#5C0605"/>
<path d="M133.2 54.8H127.6V60.4H133.2V54.8Z" fill="#5C0605"/>
<path d="M150 54.8H144.4V60.4H150V54.8Z" fill="#5C0605"/>
<path d="M15.6 60.4H10V66H15.6V60.4Z" fill="#5C0605"/>
<path d="M21.2 60.4H15.6V66H21.2V60.4Z" fill="#5C0605"/>
<path d="M32.4 60.4H26.8V66H32.4V60.4Z" fill="#5C0605"/>
<path d="M38 60.4H32.4V66H38V60.4Z" fill="#5C0605"/>
<path d="M43.6 60.4H38V66H43.6V60.4Z" fill="#5C0605"/>
<path d="M54.8 60.4H49.2V66H54.8V60.4Z" fill="#5C0605"/>
<path d="M82.8 60.4H77.2V66H82.8V60.4Z" fill="#5C0605"/>
<path d="M110.8 60.4H105.2V66H110.8V60.4Z" fill="#5C0605"/>
<path d="M133.2 60.4H127.6V66H133.2V60.4Z" fill="#5C0605"/>
<path d="M138.8 60.4H133.2V66H138.8V60.4Z" fill="#5C0605"/>
<path d="M144.4 60.4H138.8V66H144.4V60.4Z" fill="#5C0605"/>
<path d="M21.2 66H15.6V71.6H21.2V66Z" fill="#5C0605"/>
<path d="M26.8 66H21.2V71.6H26.8V66Z" fill="#5C0605"/>
<path d="M43.6 66H38V71.6H43.6V66Z" fill="#5C0605"/>
<path d="M49.2 66H43.6V71.6H49.2V66Z" fill="#5C0605"/>
<path d="M82.8 66H77.2V71.6H82.8V66Z" fill="#5C0605"/>
<path d="M88.4 66H82.8V71.6H88.4V66Z" fill="#5C0605"/>
<path d="M94 66H88.4V71.6H94V66Z" fill="#5C0605"/>
<path d="M105.2 66H99.6V71.6H105.2V66Z" fill="#5C0605"/>
<path d="M110.8 66H105.2V71.6H110.8V66Z" fill="#5C0605"/>
<path d="M116.4 66H110.8V71.6H116.4V66Z" fill="#5C0605"/>
<path d="M122 66H116.4V71.6H122V66Z" fill="#5C0605"/>
<path d="M144.4 66H138.8V71.6H144.4V66Z" fill="#5C0605"/>
<path d="M150 66H144.4V71.6H150V66Z" fill="#5C0605"/>
<path d="M32.4 71.6H26.8V77.2H32.4V71.6Z" fill="#5C0605"/>
<path d="M38 71.6H32.4V77.2H38V71.6Z" fill="#5C0605"/>
<path d="M43.6 71.6H38V77.2H43.6V71.6Z" fill="#5C0605"/>
<path d="M54.8 71.6H49.2V77.2H54.8V71.6Z" fill="#5C0605"/>
<path d="M71.6 71.6H66V77.2H71.6V71.6Z" fill="#5C0605"/>
<path d="M77.2 71.6H71.6V77.2H77.2V71.6Z" fill="#5C0605"/>
<path d="M82.8 71.6H77.2V77.2H82.8V71.6Z" fill="#5C0605"/>
<path d="M105.2 71.6H99.6V77.2H105.2V71.6Z" fill="#5C0605"/>
<path d="M110.8 71.6H105.2V77.2H110.8V71.6Z" fill="#5C0605"/>
<path d="M122 71.6H116.4V77.2H122V71.6Z" fill="#5C0605"/>
<path d="M127.6 71.6H122V77.2H127.6V71.6Z" fill="#5C0605"/>
<path d="M138.8 71.6H133.2V77.2H138.8V71.6Z" fill="#5C0605"/>
<path d="M144.4 71.6H138.8V77.2H144.4V71.6Z" fill="#5C0605"/>
<path d="M150 71.6H144.4V77.2H150V71.6Z" fill="#5C0605"/>
<path d="M26.8 77.2H21.2V82.8H26.8V77.2Z" fill="#5C0605"/>
<path d="M43.6 77.2H38V82.8H43.6V77.2Z" fill="#5C0605"/>
<path d="M49.2 77.2H43.6V82.8H49.2V77.2Z" fill="#5C0605"/>
<path d="M54.8 77.2H49.2V82.8H54.8V77.2Z" fill="#5C0605"/>
<path d="M60.4 77.2H54.8V82.8H60.4V77.2Z" fill="#5C0605"/>
<path d="M88.4 77.2H82.8V82.8H88.4V77.2Z" fill="#5C0605"/>
<path d="M99.6 77.2H94V82.8H99.6V77.2Z" fill="#5C0605"/>
<path d="M105.2 77.2H99.6V82.8H105.2V77.2Z" fill="#5C0605"/>
<path d="M116.4 77.2H110.8V82.8H116.4V77.2Z" fill="#5C0605"/>
<path d="M133.2 77.2H127.6V82.8H133.2V77.2Z" fill="#5C0605"/>
<path d="M144.4 77.2H138.8V82.8H144.4V77.2Z" fill="#5C0605"/>
<path d="M150 77.2H144.4V82.8H150V77.2Z" fill="#5C0605"/>
<path d="M26.8 82.8H21.2V88.4H26.8V82.8Z" fill="#5C0605"/>
<path d="M32.4 82.8H26.8V88.4H32.4V82.8Z" fill="#5C0605"/>
<path d="M38 82.8H32.4V88.4H38V82.8Z" fill="#5C0605"/>
<path d="M54.8 82.8H49.2V88.4H54.8V82.8Z" fill="#5C0605"/>
<path d="M66 82.8H60.4V88.4H66V82.8Z" fill="#5C0605"/>
<path d="M71.6 82.8H66V88.4H71.6V82.8Z" fill="#5C0605"/>
<path d="M82.8 82.8H77.2V88.4H82.8V82.8Z" fill="#5C0605"/>
<path d="M99.6 82.8H94V88.4H99.6V82.8Z" fill="#5C0605"/>
<path d="M116.4 82.8H110.8V88.4H116.4V82.8Z" fill="#5C0605"/>
<path d="M122 82.8H116.4V88.4H122V82.8Z" fill="#5C0605"/>
<path d="M127.6 82.8H122V88.4H127.6V82.8Z" fill="#5C0605"/>
<path d="M133.2 82.8H127.6V88.4H133.2V82.8Z" fill="#5C0605"/>
<path d="M138.8 82.8H133.2V88.4H138.8V82.8Z" fill="#5C0605"/>
<path d="M144.4 82.8H138.8V88.4H144.4V82.8Z" fill="#5C0605"/>
<path d="M150 82.8H144.4V88.4H150V82.8Z" fill="#5C0605"/>
<path d="M15.6 88.4H10V94H15.6V88.4Z" fill="#5C0605"/>
<path d="M21.2 88.4H15.6V94H21.2V88.4Z" fill="#5C0605"/>
<path d="M26.8 88.4H21.2V94H26.8V88.4Z" fill="#5C0605"/>
<path d="M38 88.4H32.4V94H38V88.4Z" fill="#5C0605"/>
<path d="M49.2 88.4H43.6V94H49.2V88.4Z" fill="#5C0605"/>
<path d="M60.4 88.4H54.8V94H60.4V88.4Z" fill="#5C0605"/>
<path d="M66 88.4H60.4V94H66V88.4Z" fill="#5C0605"/>
<path d="M71.6 88.4H66V94H71.6V88.4Z" fill="#5C0605"/>
<path d="M77.2 88.4H71.6V94H77.2V88.4Z" fill="#5C0605"/>
<path d="M82.8 88.4H77.2V94H82.8V88.4Z" fill="#5C0605"/>
<path d="M88.4 88.4H82.8V94H88.4V88.4Z" fill="#5C0605"/>
<path d="M94 88.4H88.4V94H94L94 88.4Z" fill="#5C0605"/>
<path d="M99.6 88.4H94L94 94H99.6V88.4Z" fill="#5C0605"/>
<path d="M116.4 88.4H110.8V94H116.4V88.4Z" fill="#5C0605"/>
<path d="M66 94H60.4V99.6H66V94Z" fill="#5C0605"/>
<path d="M71.6 94H66V99.6H71.6V94Z" fill="#5C0605"/>
<path d="M77.2 94H71.6V99.6H77.2V94Z" fill="#5C0605"/>
<path d="M88.4 94H82.8V99.6H88.4V94Z" fill="#5C0605"/>
<path d="M94 94H88.4V99.6H94V94Z" fill="#5C0605"/>
<path d="M122 94L116.4 94V99.6H122V94Z" fill="#5C0605"/>
<path d="M127.6 94H122V99.6H127.6V94Z" fill="#5C0605"/>
<path d="M133.2 94H127.6V99.6H133.2V94Z" fill="#5C0605"/>
<path d="M21.2 99.6H15.6V105.2H21.2V99.6Z" fill="#5C0605"/>
<path d="M32.4 99.6H26.8V105.2H32.4V99.6Z" fill="#5C0605"/>
<path d="M38 99.6H32.4V105.2H38V99.6Z" fill="#5C0605"/>
<path d="M49.2 99.6H43.6V105.2H49.2V99.6Z" fill="#5C0605"/>
<path d="M54.8 99.6H49.2V105.2H54.8V99.6Z" fill="#5C0605"/>
<path d="M60.4 99.6H54.8V105.2H60.4V99.6Z" fill="#5C0605"/>
<path d="M71.6 99.6H66V105.2H71.6V99.6Z" fill="#5C0605"/>
<path d="M82.8 99.6H77.2V105.2H82.8V99.6Z" fill="#5C0605"/>
<path d="M105.2 99.6H99.6V105.2H105.2V99.6Z" fill="#5C0605"/>
<path d="M110.8 99.6H105.2V105.2H110.8V99.6Z" fill="#5C0605"/>
<path d="M116.4 99.6H110.8V105.2H116.4V99.6Z" fill="#5C0605"/>
<path d="M122 99.6H116.4V105.2H122V99.6Z" fill="#5C0605"/>
<path d="M127.6 99.6H122V105.2H127.6V99.6Z" fill="#5C0605"/>
<path d="M138.8 99.6H133.2V105.2H138.8V99.6Z" fill="#5C0605"/>
<path d="M150 99.6H144.4V105.2H150V99.6Z" fill="#5C0605"/>
<path d="M60.4 105.2H54.8V110.8H60.4V105.2Z" fill="#5C0605"/>
<path d="M71.6 105.2H66V110.8H71.6V105.2Z" fill="#5C0605"/>
<path d="M82.8 105.2H77.2V110.8H82.8V105.2Z" fill="#5C0605"/>
<path d="M94 105.2H88.4V110.8H94V105.2Z" fill="#5C0605"/>
<path d="M105.2 105.2H99.6V110.8H105.2V105.2Z" fill="#5C0605"/>
<path d="M127.6 105.2H122V110.8H127.6V105.2Z" fill="#5C0605"/>
<path d="M133.2 105.2H127.6V110.8H133.2V105.2Z" fill="#5C0605"/>
<path d="M138.8 105.2H133.2V110.8H138.8V105.2Z" fill="#5C0605"/>
<path d="M144.4 105.2H138.8V110.8H144.4V105.2Z" fill="#5C0605"/>
<path d="M15.6 110.8H10V116.4H15.6V110.8Z" fill="#5C0605"/>
<path d="M21.2 110.8H15.6V116.4H21.2V110.8Z" fill="#5C0605"/>
<path d="M26.8 110.8H21.2V116.4H26.8V110.8Z" fill="#5C0605"/>
<path d="M32.4 110.8H26.8V116.4H32.4V110.8Z" fill="#5C0605"/>
<path d="M38 110.8H32.4V116.4H38V110.8Z" fill="#5C0605"/>
<path d="M43.6 110.8H38V116.4H43.6V110.8Z" fill="#5C0605"/>
<path d="M49.2 110.8H43.6V116.4H49.2V110.8Z" fill="#5C0605"/>
<path d="M82.8 110.8H77.2V116.4H82.8V110.8Z" fill="#5C0605"/>
<path d="M105.2 110.8H99.6V116.4H105.2V110.8Z" fill="#5C0605"/>
<path d="M116.4 110.8H110.8V116.4H116.4V110.8Z" fill="#5C0605"/>
<path d="M127.6 110.8H122V116.4H127.6V110.8Z" fill="#5C0605"/>
<path d="M133.2 110.8H127.6V116.4H133.2V110.8Z" fill="#5C0605"/>
<path d="M144.4 110.8H138.8V116.4H144.4V110.8Z" fill="#5C0605"/>
<path d="M15.6 116.4H10V122H15.6V116.4Z" fill="#5C0605"/>
<path d="M49.2 116.4H43.6V122H49.2V116.4Z" fill="#5C0605"/>
<path d="M66 116.4H60.4V122H66V116.4Z" fill="#5C0605"/>
<path d="M77.2 116.4H71.6V122H77.2V116.4Z" fill="#5C0605"/>
<path d="M99.6 116.4H94V122H99.6V116.4Z" fill="#5C0605"/>
<path d="M105.2 116.4H99.6V122H105.2V116.4Z" fill="#5C0605"/>
<path d="M127.6 116.4H122V122H127.6V116.4Z" fill="#5C0605"/>
<path d="M144.4 116.4H138.8V122H144.4V116.4Z" fill="#5C0605"/>
<path d="M15.6 122H10V127.6H15.6V122Z" fill="#5C0605"/>
<path d="M26.8 122H21.2V127.6H26.8V122Z" fill="#5C0605"/>
<path d="M32.4 122H26.8V127.6H32.4V122Z" fill="#5C0605"/>
<path d="M38 122H32.4V127.6H38V122Z" fill="#5C0605"/>
<path d="M49.2 122H43.6V127.6H49.2V122Z" fill="#5C0605"/>
<path d="M60.4 122H54.8V127.6H60.4V122Z" fill="#5C0605"/>
<path d="M66 122H60.4V127.6H66V122Z" fill="#5C0605"/>
<path d="M88.4 122H82.8V127.6H88.4V122Z" fill="#5C0605"/>
<path d="M94 122H88.4V127.6H94L94 122Z" fill="#5C0605"/>
<path d="M105.2 122H99.6V127.6H105.2V122Z" fill="#5C0605"/>
<path d="M110.8 122H105.2V127.6H110.8V122Z" fill="#5C0605"/>
<path d="M116.4 122H110.8V127.6H116.4V122Z" fill="#5C0605"/>
<path d="M122 122H116.4V127.6H122V122Z" fill="#5C0605"/>
<path d="M127.6 122H122V127.6H127.6V122Z" fill="#5C0605"/>
<path d="M138.8 122H133.2V127.6H138.8V122Z" fill="#5C0605"/>
<path d="M144.4 122H138.8V127.6H144.4V122Z" fill="#5C0605"/>
<path d="M15.6 127.6H10V133.2H15.6V127.6Z" fill="#5C0605"/>
<path d="M26.8 127.6H21.2V133.2H26.8V127.6Z" fill="#5C0605"/>
<path d="M32.4 127.6H26.8V133.2H32.4V127.6Z" fill="#5C0605"/>
<path d="M38 127.6H32.4V133.2H38V127.6Z" fill="#5C0605"/>
<path d="M49.2 127.6H43.6V133.2H49.2V127.6Z" fill="#5C0605"/>
<path d="M66 127.6H60.4V133.2H66V127.6Z" fill="#5C0605"/>
<path d="M71.6 127.6H66V133.2H71.6V127.6Z" fill="#5C0605"/>
<path d="M77.2 127.6H71.6V133.2H77.2V127.6Z" fill="#5C0605"/>
<path d="M94 127.6H88.4V133.2H94V127.6Z" fill="#5C0605"/>
<path d="M99.6 127.6H94V133.2H99.6V127.6Z" fill="#5C0605"/>
<path d="M138.8 127.6H133.2V133.2H138.8V127.6Z" fill="#5C0605"/>
<path d="M150 127.6H144.4V133.2H150V127.6Z" fill="#5C0605"/>
<path d="M15.6 133.2H10V138.8H15.6V133.2Z" fill="#5C0605"/>
<path d="M26.8 133.2H21.2V138.8H26.8V133.2Z" fill="#5C0605"/>
<path d="M32.4 133.2H26.8V138.8H32.4V133.2Z" fill="#5C0605"/>
<path d="M38 133.2H32.4V138.8H38V133.2Z" fill="#5C0605"/>
<path d="M49.2 133.2H43.6V138.8H49.2V133.2Z" fill="#5C0605"/>
<path d="M60.4 133.2H54.8V138.8H60.4V133.2Z" fill="#5C0605"/>
<path d="M66 133.2H60.4V138.8H66V133.2Z" fill="#5C0605"/>
<path d="M77.2 133.2H71.6V138.8H77.2V133.2Z" fill="#5C0605"/>
<path d="M94 133.2H88.4V138.8H94V133.2Z" fill="#5C0605"/>
<path d="M99.6 133.2H94V138.8H99.6V133.2Z" fill="#5C0605"/>
<path d="M105.2 133.2H99.6V138.8H105.2V133.2Z" fill="#5C0605"/>
<path d="M110.8 133.2H105.2V138.8H110.8V133.2Z" fill="#5C0605"/>
<path d="M138.8 133.2H133.2V138.8H138.8V133.2Z" fill="#5C0605"/>
<path d="M144.4 133.2H138.8V138.8H144.4V133.2Z" fill="#5C0605"/>
<path d="M15.6 138.8H10V144.4H15.6V138.8Z" fill="#5C0605"/>
<path d="M49.2 138.8H43.6V144.4H49.2V138.8Z" fill="#5C0605"/>
<path d="M60.4 138.8H54.8V144.4H60.4V138.8Z" fill="#5C0605"/>
<path d="M66 138.8H60.4V144.4H66V138.8Z" fill="#5C0605"/>
<path d="M77.2 138.8H71.6V144.4H77.2V138.8Z" fill="#5C0605"/>
<path d="M88.4 138.8H82.8V144.4H88.4V138.8Z" fill="#5C0605"/>
<path d="M94 138.8H88.4V144.4H94V138.8Z" fill="#5C0605"/>
<path d="M105.2 138.8H99.6V144.4H105.2V138.8Z" fill="#5C0605"/>
<path d="M110.8 138.8H105.2V144.4H110.8V138.8Z" fill="#5C0605"/>
<path d="M127.6 138.8H122V144.4H127.6V138.8Z" fill="#5C0605"/>
<path d="M133.2 138.8H127.6V144.4H133.2V138.8Z" fill="#5C0605"/>
<path d="M138.8 138.8H133.2V144.4H138.8V138.8Z" fill="#5C0605"/>
<path d="M144.4 138.8H138.8V144.4H144.4V138.8Z" fill="#5C0605"/>
<path d="M15.6 144.4H10V150H15.6V144.4Z" fill="#5C0605"/>
<path d="M21.2 144.4H15.6V150H21.2V144.4Z" fill="#5C0605"/>
<path d="M26.8 144.4H21.2V150H26.8V144.4Z" fill="#5C0605"/>
<path d="M32.4 144.4H26.8V150H32.4V144.4Z" fill="#5C0605"/>
<path d="M38 144.4H32.4V150H38V144.4Z" fill="#5C0605"/>
<path d="M43.6 144.4H38V150H43.6V144.4Z" fill="#5C0605"/>
<path d="M49.2 144.4H43.6V150H49.2V144.4Z" fill="#5C0605"/>
<path d="M60.4 144.4H54.8V150H60.4V144.4Z" fill="#5C0605"/>
<path d="M71.6 144.4H66V150H71.6V144.4Z" fill="#5C0605"/>
<path d="M77.2 144.4H71.6V150H77.2V144.4Z" fill="#5C0605"/>
<path d="M82.8 144.4H77.2V150H82.8V144.4Z" fill="#5C0605"/>
<path d="M94 144.4H88.4V150H94V144.4Z" fill="#5C0605"/>
<path d="M99.6 144.4H94V150H99.6V144.4Z" fill="#5C0605"/>
<path d="M116.4 144.4H110.8V150H116.4V144.4Z" fill="#5C0605"/>
<path d="M122 144.4H116.4V150H122V144.4Z" fill="#5C0605"/>
<path d="M127.6 144.4H122V150H127.6V144.4Z" fill="#5C0605"/>
<path d="M133.2 144.4H127.6V150H133.2V144.4Z" fill="#5C0605"/>
<path d="M138.8 144.4H133.2V150H138.8V144.4Z" fill="#5C0605"/>
<path d="M144.4 144.4H138.8V150H144.4V144.4Z" fill="#5C0605"/>
<path d="M150 144.4H144.4V150H150V144.4Z" fill="#5C0605"/>
</svg>
