<?xml version="1.0" encoding="UTF-8" standalone="no"?>
<!-- Created with Inkscape (http://www.inkscape.org/) -->

<svg
   width="6.0854158mm"
   height="6.0854173mm"
   viewBox="0 0 6.0854158 6.0854173"
   version="1.1"
   id="svg15582"
   inkscape:version="1.1.2 (0a00cf5339, 2022-02-04)"
   sodipodi:docname="рисунок.svg"
   xmlns:inkscape="http://www.inkscape.org/namespaces/inkscape"
   xmlns:sodipodi="http://sodipodi.sourceforge.net/DTD/sodipodi-0.dtd"
   xmlns="http://www.w3.org/2000/svg"
   xmlns:svg="http://www.w3.org/2000/svg">
  <sodipodi:namedview
     id="namedview15584"
     pagecolor="#ffffff"
     bordercolor="#666666"
     borderopacity="1.0"
     inkscape:pageshadow="2"
     inkscape:pageopacity="0.0"
     inkscape:pagecheckerboard="0"
     inkscape:document-units="mm"
     showgrid="false"
     inkscape:zoom="5.9152637"
     inkscape:cx="8.7908168"
     inkscape:cy="26.879613"
     inkscape:window-width="1920"
     inkscape:window-height="1008"
     inkscape:window-x="0"
     inkscape:window-y="0"
     inkscape:window-maximized="1"
     inkscape:current-layer="layer1" />
  <defs
     id="defs15579">
    <clipPath
       clipPathUnits="userSpaceOnUse"
       id="clipPath1818">
      <rect
         style="fill:#ffffff;stroke:#ffffff;stroke-width:1.00157"
         id="rect1820"
         width="112.96"
         height="112.95954"
         x="67.359558"
         y="31.658218" />
    </clipPath>
  </defs>
  <g
     inkscape:label="Слой 1"
     inkscape:groupmode="layer"
     id="layer1"
     transform="translate(-154.40308,-127.92355)">
    <path
       style="fill:#5c0605;fill-opacity:1"
       d="m 67.359559,87.658218 v -56 h 112.039471 62.96053 175 v 56 56.000002 h -175 -62.64033 -112.359671 z m 79.114221,30.324452 c 6.00951,-3.372 12.01839,-10.48599 13.75614,-16.28608 1.93388,-6.454728 1.39707,-15.922142 -1.22167,-21.545651 -2.39356,-5.139973 -8.57538,-11.492721 -11.18348,-11.492721 -0.80587,0 -1.46521,-0.752138 -1.46521,-1.671417 0,-2.883272 -8.39617,-9.967291 -14.03226,-11.8393 -6.76326,-2.246394 -16.79799,-1.641576 -22.69118,1.367656 -9.706013,4.956169 -15.330194,13.623939 -16.056717,24.746007 -0.404832,6.197423 -0.110757,7.89004 2.30673,13.27692 2.721794,6.064966 8.187797,12.120136 10.940837,12.120136 0.7688,0 1.70486,1.0125 2.08014,2.25 1.11709,3.68367 4.58844,6.83518 10.95245,9.94334 5.37773,2.62646 6.78969,2.89006 13.61422,2.54175 6.1698,-0.3149 8.6359,-0.9619 13,-3.41064 z m -42.7539,-13.78462 c -5.018593,-3.51517 -5.561583,-12.319293 -1.30743,-21.199275 2.99813,-6.25823 14.0518,-17.288924 20.44711,-20.404629 3.69245,-1.798909 6.65708,-2.435928 11.33659,-2.435928 5.70305,0 6.57787,0.280518 8.75,2.805764 3.51588,4.087464 3.08829,5.358063 -1.99603,5.931139 -6.8455,0.771587 -13.49165,4.536044 -20.65463,11.699025 -7.16298,7.16298 -10.92744,13.809129 -11.69902,20.654634 -0.52848,4.68864 -1.5292,5.29386 -4.87659,2.94927 z m 140.63968,1.61846 c 0,-4.73789 0.0813,-4.86608 3.79153,-5.977686 8.12992,-2.435784 12.10626,-10.702794 8.87158,-18.444473 -1.65649,-3.96453 -6.72236,-7.726263 -10.41311,-7.732395 -1.99945,-0.0033 -2.25,-0.504846 -2.25,-4.503738 0,-4.47619 -0.0185,-4.5 -3.5,-4.5 -3.48148,0 -3.5,0.02381 -3.5,4.5 0,3.869676 -0.2871,4.5 -2.04966,4.5 -6.28134,0 -11.95034,6.160759 -11.95034,12.986975 0,6.665418 3.13458,11.070661 9.2595,13.013025 l 4.73,1.500002 0.005,4.75 0.005,4.75 h 3.5 3.5 v -4.84171 z M 232.81411,92.203673 c -3.03027,-3.030267 -3.23438,-7.765624 -0.45455,-10.545455 3.90521,-3.905213 5,-2.700947 5,5.5 0,8.184917 -0.66635,8.924562 -4.54545,5.045455 z m 11.54545,-5.045455 c 0,-4.125 0.40015,-7.5 0.88922,-7.5 0.48906,0 1.92987,0.842677 3.2018,1.872616 3.11831,2.525059 3.05826,8.778338 -0.10894,11.342977 -1.21201,0.981424 -2.6038,1.784407 -3.09286,1.784407 -0.48907,0 -0.88922,-3.375 -0.88922,-7.5 z m 57,16.974322 v -6.525682 l 2.95034,1.52568 c 10.23659,5.293542 21.7663,-3.510312 19.61502,-14.977638 -1.8375,-9.794691 -14.42838,-14.455563 -21.57607,-7.986993 -1.58987,1.438813 -1.77978,1.399492 -2.26858,-0.469712 -0.36397,-1.391822 -1.35753,-2.039977 -3.12709,-2.039977 h -2.59362 v 18.5 18.500002 h 3.5 3.5 z m 2.63486,-11.546902 c -5.43446,-4.274749 -2.15202,-12.92742 4.9041,-12.92742 4.52553,0 7.46104,2.92228 7.46104,7.42742 0,3.875244 -3.6619,7.57258 -7.5,7.57258 -1.22666,0 -3.41597,-0.932661 -4.86514,-2.07258 z m 34.42053,17.042932 c 2.58229,-1.382 4.03568,-4.3931 10.35387,-21.450979 l 5.37794,-14.519373 h -3.69271 c -3.36361,0 -3.81145,0.33421 -5.02505,3.75 -0.73278,2.0625 -2.2348,6.190779 -3.33782,9.173954 l -2.00549,5.423954 -3.69687,-8.923954 c -3.65708,-8.827882 -3.7373,-8.927352 -7.45129,-9.239578 -4.48543,-0.377081 -4.60367,-1.097877 2.56794,15.654317 2.66975,6.236281 4.85409,11.925639 4.85409,12.643009 0,1.53076 -2.18887,2.5183 -5.58179,2.5183 -2.02023,0 -2.41821,0.49372 -2.41821,3 0,2.84142 0.21492,3 4.06574,3 2.23616,0 4.9315,-0.46334 5.98965,-1.02965 z M 217.36058,97.157243 c 1.64944,-1.580264 2.99898,-3.412942 2.99898,-4.072617 0,-2.050287 -5.54467,-2.213529 -7.98784,-0.235171 -4.14223,3.354172 -9.10408,1.852452 -10.89984,-3.298872 -2.32424,-6.667327 3.99881,-12.086898 10.05,-8.613991 3.57728,2.053077 8.83768,2.296355 8.83768,0.408717 0,-2.166154 -5.43618,-6.692629 -9.32834,-7.767305 -11.72848,-3.238389 -21.74743,9.297861 -16.12311,20.174096 2.53929,4.910451 7.00548,7.0771 13.70247,6.64738 4.68574,-0.30067 6.30652,-0.901242 8.75,-3.242237 z m 66.02647,1.854671 c 2.64142,-1.758772 4.97251,-4.299562 4.97251,-5.419826 0,-1.558021 -6.24084,-1.878588 -8.31325,-0.427018 -1.17247,0.821231 -3.05651,1.493148 -4.18675,1.493148 -2.65145,0 -6.5,-2.697954 -6.5,-4.556704 0,-1.16609 2.01668,-1.443296 10.5,-1.443296 11.90154,0 12.00354,-0.09159 8.55662,-7.683683 -1.20324,-2.650215 -3.1195,-4.821199 -5.22804,-5.922984 -4.19143,-2.19017 -11.99872,-2.167098 -15.37547,0.04544 -8.43336,5.525745 -8.51833,18.502023 -0.15456,23.601714 4.03581,2.460785 12.25772,2.624505 15.72894,0.313212 z m -13.41593,-16.78382 c 0.87481,-2.279712 5.7616,-3.568432 8.43462,-2.224334 4.57005,2.297996 3.48194,3.654458 -2.93146,3.654458 -4.83725,0 -5.9418,-0.287044 -5.50316,-1.430124 z m 94.38844,9.230124 c 0,-5.164482 0.37488,-8.783289 0.85463,-8.25 0.47005,0.5225 2.12294,4.6625 3.67308,9.2 2.598,7.604722 3.02997,8.250002 5.52274,8.250002 2.50109,0 2.95773,-0.695085 6.07692,-9.250002 l 3.37263,-9.25 c 0.19169,6.166667 0.38337,12.333335 0.57505,18.500002 h 3.46248 3.46247 V 73.658218 h -5.32692 -5.32692 l -2.79905,8.040697 c -1.53948,4.422383 -3.07771,7.762032 -3.41831,7.421441 -0.34059,-0.340591 -1.80277,-3.846405 -3.2493,-7.790697 l -2.63004,-7.171441 h -5.37473 -5.37473 l -0.28339,11.941784 c -0.15587,6.567981 -0.0575,12.530481 0.21861,13.25 0.27611,0.719518 1.86613,1.308218 3.5334,1.308218 h 3.03138 z"
       id="path14948"
       sodipodi:nodetypes="ccsccccccccssssssssssssssssssssssscssssssssscccccccssssssssssccsssssccccccssssssscssscssssssssssssssssssssssssssssssssssssssscccccccssscccssscs"
       clip-path="url(#clipPath1818)"
       transform="matrix(0.05387231,0,0,0.05433408,150.77426,126.20343)" />
  </g>
</svg>
