<svg width="17" height="16" viewBox="0 0 17 16" fill="none" xmlns="http://www.w3.org/2000/svg">
<g clip-path="url(#clip0_714_1069)">
<path d="M17.0008 7.99993C17.0008 10.3399 14.9794 12.2424 12.4931 12.2424L4.36234 12.2424C4.02234 12.2424 3.74609 11.9824 3.74609 11.6624L3.74609 4.33743C3.74609 4.01743 4.02234 3.75743 4.36234 3.75743L12.4931 3.75743C14.9794 3.75743 17.0008 5.65993 17.0008 7.99993ZM4.97859 11.0824L12.4931 11.0824C14.2994 11.0824 15.7683 9.69993 15.7683 7.99993C15.7683 6.29993 14.2994 4.91743 12.4931 4.91743L4.97859 4.91743L4.97859 11.0824Z" fill="#A88D8D"/>
<path d="M4.97781 5.62508C4.97781 5.94508 4.70156 6.20508 4.36156 6.20508L1.2325 6.20508L1.2325 9.79508L4.36156 9.79508C4.70156 9.79508 4.97781 10.0551 4.97781 10.3751C4.97781 10.6951 4.70156 10.9551 4.36156 10.9551L0.61625 10.9551C0.452983 10.9546 0.296562 10.8933 0.181114 10.7846C0.0656661 10.676 0.000560104 10.5287 6.91643e-09 10.3751L6.35596e-08 5.62508C6.73756e-08 5.30508 0.27625 5.04508 0.61625 5.04508L4.36156 5.04508C4.70156 5.04508 4.97781 5.30508 4.97781 5.62508Z" fill="#A88D8D"/>
</g>
<defs>
<clipPath id="clip0_714_1069">
<rect width="16" height="17" fill="white" transform="translate(0 16) rotate(-90)"/>
</clipPath>
</defs>
</svg>
