<svg width="23" height="23" viewBox="0 0 23 23" fill="none" xmlns="http://www.w3.org/2000/svg">
<g clip-path="url(#clip0_330_1569)">
<path d="M9.09363 0.0040957L9.79225 0.0012207H13.2077L13.9073 0.0040957L14.7832 0.013679L15.1982 0.0203874L15.5988 0.030929L15.985 0.0443457L16.3568 0.059679L16.7153 0.079804L17.0602 0.103762L17.3909 0.132512L17.71 0.164137C19.3775 0.351971 20.5208 0.754471 21.3833 1.61697C22.2458 2.47947 22.6483 3.6218 22.8361 5.29026L22.8687 5.60939L22.8965 5.94097L22.9205 6.28597L22.9396 6.64343L22.9636 7.20693L22.9751 7.59985L22.9875 8.21701L22.9962 9.09389L23 10.0331L22.999 13.208L22.9962 13.9076L22.9866 14.7835L22.9799 15.1985L22.9693 15.5991L22.9559 15.9853L22.9406 16.3571L22.9205 16.7155L22.8965 17.0605L22.8677 17.3911L22.8361 17.7103C22.6483 19.3778 22.2458 20.5211 21.3833 21.3836C20.5208 22.2461 19.3785 22.6486 17.71 22.8364L17.3909 22.869L17.0593 22.8968L16.7143 22.9207L16.3568 22.9399L15.7933 22.9638L15.4004 22.9753L14.7832 22.9878L13.9064 22.9964L12.9672 23.0003L9.79225 22.9993L9.09267 22.9964L8.21675 22.9868L7.80179 22.9801L7.40121 22.9696L7.015 22.9562L6.64317 22.9408L6.28475 22.9207L5.93975 22.8968L5.60913 22.868L5.29 22.8364C3.6225 22.6486 2.47921 22.2461 1.61671 21.3836C0.754208 20.5211 0.351708 19.3787 0.163875 17.7103L0.131292 17.3911L0.1035 17.0596L0.0795417 16.7146L0.060375 16.3571L0.0364167 15.7936L0.0249167 15.4007L0.0124583 14.7835L0.00383333 13.9066L0 12.9675L0.000958333 9.79251L0.00383333 9.09293L0.0134167 8.21701L0.020125 7.80205L0.0306667 7.40147L0.0440833 7.01526L0.0594167 6.64343L0.0795417 6.28501L0.1035 5.94001L0.13225 5.60939L0.163875 5.29026C0.351708 3.62276 0.754208 2.47947 1.61671 1.61697C2.47921 0.754471 3.62154 0.351971 5.29 0.164137L5.60913 0.131554L5.94071 0.103762L6.28571 0.079804L6.64317 0.0606374L7.20667 0.036679L7.59958 0.025179L8.21675 0.0127207L9.09363 0.0040957ZM6.50708 6.9961H3.88125C4.00583 12.9761 6.99583 16.5698 12.2379 16.5698H12.535V13.1486C14.4612 13.3403 15.9179 14.749 16.5025 16.5698H19.2242C18.4767 13.8482 16.5121 12.3436 15.2854 11.7686C16.5121 11.0594 18.2371 9.33443 18.6492 6.9961H16.1767C15.64 8.8936 14.0492 10.6186 12.535 10.7815V6.9961H10.0625V13.6278C8.52917 13.2444 6.59333 11.3853 6.50708 6.9961Z" fill="#5C0605"/>
</g>
<defs>
<clipPath id="clip0_330_1569">
<rect width="23" height="23" fill="white"/>
</clipPath>
</defs>
</svg>
