<svg width="25" height="27" viewBox="0 0 25 27" fill="none" xmlns="http://www.w3.org/2000/svg">
<path d="M22.7812 0.09375H6.28125C5.73424 0.09375 5.20964 0.311048 4.82284 0.697842C4.43605 1.08464 4.21875 1.60924 4.21875 2.15625V5.25H2.15625C1.60924 5.25 1.08464 5.4673 0.697842 5.85409C0.311048 6.24089 0.09375 6.76549 0.09375 7.3125V19.6875C0.09375 20.2345 0.311048 20.7591 0.697842 21.1459C1.08464 21.5327 1.60924 21.75 2.15625 21.75H4.21875V24.8438C4.21875 25.3908 4.43605 25.9154 4.82284 26.3022C5.20964 26.689 5.73424 26.9062 6.28125 26.9062H22.7812C23.3283 26.9062 23.8529 26.689 24.2397 26.3022C24.6265 25.9154 24.8438 25.3908 24.8438 24.8438V2.15625C24.8438 1.60924 24.6265 1.08464 24.2397 0.697842C23.8529 0.311048 23.3283 0.09375 22.7812 0.09375ZM17.625 10.4062H22.7812V16.5938H17.625V10.4062ZM6.28125 2.15625H22.7812V8.34375H17.625V7.3125C17.625 6.76549 17.4077 6.24089 17.0209 5.85409C16.6341 5.4673 16.1095 5.25 15.5625 5.25H6.28125V2.15625ZM2.15625 7.3125H15.5625V19.6875H2.15625V7.3125ZM6.28125 24.8438V21.75H15.5625C16.1095 21.75 16.6341 21.5327 17.0209 21.1459C17.4077 20.7591 17.625 20.2345 17.625 19.6875V18.6562H22.7812V24.8438H6.28125ZM5.79141 16.8387L4.24453 10.6512C4.21237 10.5191 4.20653 10.382 4.22734 10.2478C4.24815 10.1135 4.29522 9.98457 4.36584 9.86846C4.43646 9.75235 4.52926 9.65129 4.63895 9.57104C4.74863 9.4908 4.87304 9.43294 5.00508 9.40078C5.27174 9.33582 5.55329 9.37946 5.78779 9.52209C5.9039 9.59271 6.00496 9.68551 6.0852 9.7952C6.16545 9.90488 6.22331 10.0293 6.25547 10.1613L7.06758 13.4355L7.91836 11.5406C7.99973 11.3591 8.13186 11.205 8.29882 11.0969C8.46579 10.9888 8.66046 10.9312 8.85938 10.9312C9.05829 10.9312 9.25296 10.9888 9.41993 11.0969C9.58689 11.205 9.71902 11.3591 9.80039 11.5406L10.6512 13.4355L11.4633 10.1613C11.4954 10.0293 11.5533 9.90488 11.6335 9.7952C11.7138 9.68551 11.8149 9.59271 11.931 9.52209C12.0471 9.45147 12.176 9.4044 12.3103 9.38359C12.4445 9.36278 12.5816 9.36862 12.7137 9.40078C12.8457 9.43294 12.9701 9.4908 13.0798 9.57104C13.1895 9.65129 13.2823 9.75235 13.3529 9.86846C13.4235 9.98457 13.4706 10.1135 13.4914 10.2478C13.5122 10.382 13.5064 10.5191 13.4742 10.6512L11.9273 16.8387C11.8749 17.0483 11.7587 17.2366 11.5948 17.3774C11.4309 17.5183 11.2273 17.6048 11.0121 17.625H10.9219C10.7216 17.6259 10.5254 17.5676 10.358 17.4575C10.1907 17.3475 10.0595 17.1905 9.98086 17.0063L8.85938 14.4926L7.73789 17.0063C7.65232 17.2043 7.50679 17.3705 7.3218 17.4815C7.1368 17.5925 6.92165 17.6427 6.70664 17.625C6.49147 17.6048 6.28787 17.5183 6.12394 17.3774C5.96001 17.2366 5.84382 17.0483 5.79141 16.8387Z" fill="#5C0605"/>
</svg>
