<svg width="31" height="29" viewBox="0 0 31 29" fill="none" xmlns="http://www.w3.org/2000/svg">
<path d="M4.15234 7.60005C5.3019 5.6079 6.95588 3.95368 8.94786 2.80384C10.9398 1.654 13.1995 1.04912 15.4996 1.05005C17.7996 1.04912 20.0593 1.654 22.0513 2.80384C24.0432 3.95368 25.6972 5.6079 26.8468 7.60005M4.15234 20.7C5.3019 22.6922 6.95588 24.3464 8.94786 25.4963C10.9398 26.6461 13.1995 27.251 15.4996 27.25C17.7996 27.251 20.0593 26.6461 22.0513 25.4963C24.0432 24.3464 25.6972 22.6922 26.8468 20.7H4.15234Z" stroke="#5C0605" stroke-width="1.965" stroke-linecap="round" stroke-linejoin="round"/>
<path d="M22.0498 11.53L24.0148 18.08L25.9798 11.53L27.9448 18.08L29.9098 11.53M16.8098 27.1845C16.8098 27.1845 18.6543 24.757 19.8163 20.7L16.8098 27.1845ZM16.8098 1.11548C16.8098 1.11548 18.6543 3.5416 19.8163 7.59998L16.8098 1.11548ZM14.1898 27.1845C14.1898 27.1845 12.3454 24.7584 11.1834 20.7L14.1898 27.1845ZM14.1898 1.11548C14.1898 1.11548 12.3454 3.5416 11.1834 7.59998L14.1898 1.11548ZM11.5698 11.53L13.5348 18.08L15.4998 11.53L17.4648 18.08L19.4298 11.53H11.5698ZM1.08984 11.53L3.05484 18.08L5.01984 11.53L6.98484 18.08L8.94984 11.53H1.08984Z" stroke="#5C0605" stroke-width="1.965" stroke-linecap="round" stroke-linejoin="round"/>
</svg>
